<svg xmlns="http://www.w3.org/2000/svg" viewBox="0 0 422.45 312.49"><defs><style>.cls-1{fill:#4527a0;}.cls-2{font-size:102px;font-family:FranklinGothic-Heavy, Franklin Gothic Heavy;font-weight:800;letter-spacing:0.03em;}.cls-3{letter-spacing:-0.01em;}.cls-4{letter-spacing:0.03em;}</style></defs><g id="Calque_2" data-name="Calque 2"><g id="Calque_1-2" data-name="Calque 1"><path class="cls-1" d="M300.12,88.89A88.91,88.91,0,0,1,263.19,161l-10.54-18.4-3.76-6.57-10.65-18.59-27-47.13L198,93.33l-10.71,18.59L176.6,93.3l-23-40.21A68,68,0,0,0,162,135.63a71.05,71.05,0,0,0,7.62,6.89,67.61,67.61,0,0,0,41.58,14.22c.57,0,1.14,0,1.71,0l-12-20.9-27.38-.14,10.65-18.48,6.08,0,21.42.11,10.65,18.59,10,17.45L243,171.93a89.05,89.05,0,0,1-83.94-11.05,89.51,89.51,0,0,1-23.55-25.38,88,88,0,0,1-8.68-18.58,88.89,88.89,0,0,1,28.84-97.43L166.3,38l21,36.68,13.25-23,10.72-18.59L222,51.73l37.71,65.83,6.44,11.24A67.87,67.87,0,0,0,218,21.37a66.83,66.83,0,0,0-6.82-.34c-2.25,0-4.49.11-6.68.32A67.29,67.29,0,0,0,185.81,26L175.28,7.57A87.67,87.67,0,0,1,193.34,1.8,89,89,0,0,1,300.12,88.89Z"/><text class="cls-2" transform="translate(0 281.21)">ADGI<tspan class="cls-3" x="249.01" y="0">T</tspan><tspan class="cls-4" x="296.35" y="0">AL</tspan></text></g></g></svg>