<svg xmlns="http://www.w3.org/2000/svg" viewBox="0 0 177.79 177.78"><defs><style>.cls-1{fill:#4527a0;}</style></defs><g id="Calque_2" data-name="Calque 2"><g id="Calque_1-2" data-name="Calque 1"><path class="cls-1" d="M177.79,88.89a88.32,88.32,0,0,1-13.64,47.34A89.88,89.88,0,0,1,155,148.35,89,89,0,0,1,140.86,161l-10.54-18.4-3.76-6.57-10.65-18.59-27-47.13-13.25,23L64.94,111.92,54.27,93.3l-23-40.21A68,68,0,0,0,27.12,117a68.63,68.63,0,0,0,12.57,18.6,71.05,71.05,0,0,0,7.62,6.89,67.59,67.59,0,0,0,41.58,14.22c.57,0,1.14,0,1.71,0l-12-20.9-27.38-.14L61.9,117.2l6.08,0,21.42.11,10.65,18.59,10,17.45,10.63,18.56a89.07,89.07,0,0,1-84-11.05,89.37,89.37,0,0,1-14.07-12.71A88.86,88.86,0,0,1,33.35,19.49L44,38,65,74.71l13.25-23L89,33.11,99.62,51.73l37.71,65.83,6.44,11.24A67.87,67.87,0,0,0,95.71,21.37,67,67,0,0,0,88.89,21c-2.25,0-4.49.11-6.68.32A67.29,67.29,0,0,0,63.48,26L53,7.57A87.67,87.67,0,0,1,71,1.8,89,89,0,0,1,177.79,88.89Z"/></g></g></svg>